<svg width="107" height="54" viewBox="0 0 107 54" fill="none" xmlns="http://www.w3.org/2000/svg">
<g clip-path="url(#clip0_2125_568)">
<path fill-rule="evenodd" clip-rule="evenodd" d="M45.845 17.255C47.7939 16.8848 49.7428 16.495 51.6723 16.1247C51.6528 24.7583 51.6528 33.3726 51.6723 41.9868C49.7428 41.5969 47.7939 41.1877 45.8645 40.8173C45.806 40.0573 45.845 39.2972 45.845 38.5371C45.8255 31.4626 45.8255 24.3686 45.845 17.255ZM92.9892 21.0749C91.3522 21.1139 89.676 21.6206 88.4093 22.673C87.3568 23.5306 86.5968 24.6999 86.168 25.9861C85.7003 27.3699 85.6028 28.8706 85.7783 30.3322C85.9732 32.0083 86.6357 33.6649 87.8051 34.8927C88.721 35.8671 89.9684 36.5492 91.2742 36.8416C92.9113 37.2119 94.6847 37.1535 96.2244 36.4323C97.3547 35.9257 98.2903 35.0291 98.9528 33.9767C99.6935 32.7879 100.064 31.4041 100.181 30.0009C100.317 28.4223 100.142 26.8047 99.557 25.3236C99.0503 23.9982 98.1344 22.8095 96.9065 22.0493C95.7372 21.3282 94.3535 21.0165 92.9892 21.0749ZM92.1317 15.6375C94.9576 15.4426 97.9199 15.9688 100.356 17.4695C101.72 18.3075 102.89 19.4183 103.806 20.7241C104.605 21.8935 105.189 23.1992 105.599 24.5635C106.027 26.0251 106.183 27.5648 106.203 29.0849C106.203 31.8719 105.56 34.7173 104.02 37.0755C102.675 39.1803 100.629 40.8173 98.2903 41.6749C96.7701 42.2401 95.1719 42.5129 93.5544 42.5519C90.5141 42.6103 87.3764 41.8698 84.9013 40.0768C82.7964 38.5761 81.2567 36.3739 80.4772 33.9182C79.9315 32.2811 79.7172 30.5271 79.7366 28.7926C79.756 25.7718 80.6332 22.6926 82.5236 20.3148C84.0632 18.3465 86.2655 16.9432 88.6626 16.2416C89.7735 15.8908 90.9428 15.6959 92.1317 15.6375ZM8.58183 16.7873C9.98504 15.9688 11.6026 15.579 13.2203 15.5985C15.7928 15.6959 18.2679 17.0212 19.7686 19.126C20.5286 18.0931 21.5811 17.294 22.7115 16.7288C25.2645 15.501 28.3633 15.3061 30.9943 16.378C32.2222 16.8848 33.333 17.6643 34.1905 18.6778C35.0675 19.7107 35.6522 20.958 36.003 22.2442C36.3733 23.589 36.4707 24.9922 36.4318 26.376C36.4318 31.5796 36.4318 36.8027 36.4318 42.0062C34.5024 41.6165 32.5535 41.2071 30.6045 40.8369C30.5851 35.8477 30.6045 30.8585 30.5851 25.8692C30.6045 24.7193 30.1953 23.55 29.3767 22.751C28.4997 21.8545 27.2134 21.4257 25.9662 21.4452C24.8553 21.4257 23.7248 21.757 22.8478 22.4587C21.8539 23.2382 21.3277 24.5245 21.3277 25.7912C21.3277 31.1898 21.3277 36.6078 21.3277 42.0062C19.3788 41.6165 17.4299 41.2071 15.4809 40.8369C15.4615 39.2388 15.4809 37.6211 15.4615 36.0036C15.4615 32.6515 15.4615 29.2993 15.4615 25.9277C15.5005 24.7779 15.1107 23.589 14.2922 22.7705C13.5711 22.0299 12.5771 21.6011 11.5832 21.4842C10.6282 21.3868 9.65373 21.4647 8.75723 21.835C7.82175 22.2248 7.0227 22.9653 6.59394 23.8813C6.3016 24.505 6.16517 25.1871 6.16517 25.8692C6.16517 30.0789 6.16517 34.2886 6.16517 38.4982C6.18466 39.6676 6.14568 40.8369 6.18466 42.0062C4.23575 41.6359 2.30633 41.2071 0.376908 40.8563C0.33793 40.1742 0.396397 39.4727 0.33793 38.81C0.357419 38.0305 0.357419 37.2509 0.33793 36.4713C0.396397 35.7502 0.33793 35.0097 0.357419 34.2886C0.357419 32.2227 0.357419 30.1569 0.357419 28.091C0.33793 26.8047 0.376908 25.4989 0.33793 24.2127C0.357419 23.4916 0.357419 22.751 0.33793 22.0299C0.376908 20.5877 0.357419 19.165 0.357419 17.7228C0.376908 17.5863 0.259973 17.372 0.415886 17.294C2.34531 16.9237 4.25524 16.5535 6.18466 16.1831C6.16517 17.0601 6.18466 17.9371 6.18466 18.8142C6.86678 17.9957 7.66584 17.294 8.58183 16.7873ZM72.1554 15.9882C73.0908 15.8323 74.0458 15.6765 74.9813 15.5206C74.9813 17.5473 74.9813 19.5742 74.9813 21.6011C74.0458 21.7766 73.1103 21.9519 72.1748 22.1078C70.7716 22.3417 69.3099 22.751 68.2575 23.7645C67.3999 24.5635 66.9907 25.7328 66.9127 26.8827C66.8543 27.7012 66.8933 28.5198 66.8933 29.3578C66.8933 33.5675 66.8933 37.7771 66.8933 41.9868C65.2757 41.6555 63.658 41.3241 62.0209 41.0122C61.7092 40.9538 61.4168 40.8759 61.0855 40.8369C61.0076 40.3887 61.066 39.9403 61.0465 39.4921C61.0465 35.0097 61.0465 30.5467 61.0465 26.0641C61.0855 24.6609 61.3194 23.2382 61.904 21.9325C62.4693 20.6267 63.4632 19.5158 64.6325 18.6972C66.1917 17.6253 68.0042 16.9822 69.8362 16.495C70.6157 16.3196 71.3563 16.1052 72.1554 15.9882ZM48.1837 4.82099C49.1192 4.70406 50.1326 4.8015 50.9317 5.36669C51.8477 5.97084 52.3544 7.06225 52.3738 8.13415C52.4324 8.44597 52.3544 8.77728 52.3544 9.08911C52.2569 10.0636 51.7503 10.999 50.9122 11.5448C50.0352 12.1295 48.9048 12.2269 47.8719 12.0125C47.0144 11.8371 46.2153 11.2914 45.728 10.5313C45.1629 9.6348 45.0655 8.50443 45.2798 7.47151C45.4747 6.49706 46.1374 5.60056 47.0338 5.1718C47.4042 4.99639 47.7939 4.87946 48.1837 4.82099Z" fill="white"/>
</g>
<defs>
<clipPath id="clip0_2125_568">
<rect width="106.667" height="53.3333" fill="white" transform="translate(0.333252 0.333008)"/>
</clipPath>
</defs>
</svg>
