<svg width="40" height="56" viewBox="0 0 40 56" fill="none" xmlns="http://www.w3.org/2000/svg">
<path d="M10.7292 32.0101C11.6613 32.0101 12.4471 31.2075 12.4512 30.2402V16.8013H1.83487V28.236C1.83487 28.7089 1.67605 29.173 1.36257 29.5157C1.0282 29.8802 0.522458 30.11 0 30.11V32.0101H10.7292Z" fill="#00A06E"/>
<path d="M1.83487 3.80437C1.83487 2.75459 1.01566 1.90002 0 1.90002V0H12.4471V15.2088H1.83487V3.80437Z" fill="#00A06E"/>
<path d="M25.889 28.236V24.718C25.889 19.955 22.9298 16.8013 18.6833 16.8013H13.9812V24.4057C13.9812 29.0169 16.7774 32.0101 21.3081 32.0101H27.7239V30.11C26.7124 30.11 25.889 29.2859 25.889 28.236Z" fill="#00A06E"/>
<path d="M25.3748 7.63041C25.3748 7.87333 25.3622 8.1206 25.3371 8.36352C25.2953 8.78433 25.2285 9.20508 25.1365 9.61722C25.0487 10.0163 24.9317 10.4067 24.7896 10.7884C24.6516 11.1572 24.4928 11.5129 24.3048 11.8556C24.1208 12.1896 23.916 12.5063 23.6862 12.8056C23.4605 13.1006 23.2055 13.3695 22.9338 13.6211C22.6622 13.8684 22.3696 14.0896 22.0561 14.2848C21.7384 14.48 21.4041 14.6448 21.0571 14.7793C20.6935 14.9182 20.3215 15.0223 19.9412 15.0917C19.5358 15.1654 19.1262 15.2131 18.7124 15.2131H13.9768V0L18.6789 0.00867589C19.0885 0.00867589 19.4981 0.0477173 19.9036 0.117124C20.2839 0.182193 20.6601 0.286304 21.0196 0.42078C21.3664 0.55092 21.7008 0.71576 22.0185 0.906631C22.3278 1.0975 22.6245 1.31439 22.9004 1.56166C23.1721 1.80892 23.427 2.07787 23.6527 2.36851C23.8868 2.66349 24.0916 2.98016 24.2755 3.30984C24.4636 3.64821 24.6266 4.00391 24.7645 4.3683C24.9066 4.7457 25.0237 5.13612 25.1156 5.53087C25.2117 5.94296 25.2786 6.35943 25.3246 6.78018C25.3539 7.06649 25.3706 7.34847 25.3706 7.63041" fill="#00A06E"/>
<path d="M10.8671 36.384H9.89746V37.1388H10.8671V36.384Z" fill="white"/>
<path d="M26.2318 36.384H25.262V37.1388H26.2318V36.384Z" fill="white"/>
<path d="M1.49208 47.6867V46.6673H2.28622C2.51195 46.676 2.69163 46.7454 2.81703 46.8842C2.94243 47.023 3.00513 47.2139 3.00513 47.4568V47.7431C3.00513 48.0251 3.06782 48.2506 3.19738 48.4285C3.29351 48.563 3.44402 48.6454 3.6446 48.6758C3.7115 48.6888 3.78673 48.6931 3.86196 48.6931H4.36351V48.0858C3.96225 48.0858 3.97062 47.704 3.97062 47.704V47.4481C3.97062 47.1488 3.90792 46.8972 3.78253 46.6933C3.65718 46.4895 3.45234 46.3463 3.16812 46.2595C3.41891 46.1468 3.61117 45.9949 3.74077 45.8084C3.87033 45.6218 3.93719 45.405 3.93719 45.149C3.93719 44.6892 3.78253 44.3291 3.46908 44.0689C3.15558 43.8086 2.72511 43.6785 2.17756 43.6785H0.00830078V44.2858C0.00830078 44.2858 0.497314 44.2598 0.522422 44.6935V47.6824C0.522422 47.6824 0.551691 48.0901 0.00830078 48.0901V48.6931H2.01036V48.0901C2.01036 48.0901 1.49208 48.1248 1.49208 47.6824M2.76691 45.7129C2.63314 45.8344 2.42835 45.8908 2.16082 45.8908H1.49208V44.455H2.17756C2.43667 44.455 2.6373 44.5244 2.77107 44.6588C2.90484 44.7933 2.9717 44.9712 2.9717 45.1968C2.9717 45.4223 2.90484 45.5958 2.77107 45.7129" fill="#3F1D4F"/>
<path d="M6.29482 44.9021C5.76817 44.9021 5.35018 45.0799 5.05342 45.4356C4.75251 45.7914 4.60205 46.2468 4.60205 46.8021V46.8759C4.60205 47.4354 4.75251 47.8909 5.05342 48.2423C5.35439 48.5936 5.76817 48.7715 6.30315 48.7715C6.83817 48.7715 7.24358 48.5936 7.54034 48.2423C7.84125 47.8909 7.98755 47.4354 7.98755 46.8759V46.8021C7.98755 46.2425 7.83709 45.787 7.54034 45.4356C7.23942 45.0843 6.82564 44.9064 6.29482 44.9064M7.02627 46.8759C7.02627 47.1275 6.99279 47.3443 6.93009 47.5265C6.90919 47.5873 6.88413 47.6436 6.85486 47.6957C6.73783 47.9039 6.55394 48.0037 6.30736 48.0037C6.06072 48.0037 5.8643 47.8996 5.75144 47.6957C5.63441 47.4918 5.58008 47.2185 5.58008 46.8759V46.8021C5.58008 46.4724 5.63862 46.2035 5.75144 45.9953C5.8643 45.787 6.04819 45.6829 6.30315 45.6829C6.5581 45.6829 6.74204 45.787 6.85907 45.9953C6.9761 46.2035 7.03459 46.4724 7.03459 46.8021V46.8759H7.02627Z" fill="#3F1D4F"/>
<path d="M25.9143 48.0965V48.6995H24.0584V48.0965C24.4972 48.0965 24.4764 47.7495 24.4764 47.7495V46.4395C24.4764 46.1575 24.4305 45.9623 24.3426 45.8495C24.2546 45.7367 24.1208 45.6846 23.9497 45.6846C23.8116 45.6846 23.6948 45.715 23.5946 45.7801C23.4938 45.8408 23.4149 45.9319 23.352 46.0447C23.352 46.0837 23.352 46.1228 23.352 46.1488C23.352 46.1748 23.352 46.2009 23.352 46.2312V47.7452C23.352 47.7452 23.3312 48.0922 23.7449 48.0922V48.6952H21.9978V48.0922C22.4073 48.0922 22.3907 47.7452 22.3907 47.7452V46.4351C22.3907 46.1618 22.3486 45.9666 22.2569 45.8495C22.1652 45.7324 22.0356 45.6803 21.8597 45.6803C21.7301 45.6803 21.6134 45.7064 21.5169 45.7584C21.4166 45.8105 21.3372 45.8842 21.2748 45.9753V47.7408C21.2748 47.7408 21.262 48.0879 21.6928 48.0879V48.6908H19.8411V48.0879C19.8411 48.0879 20.3093 48.1139 20.3093 47.7322V45.997C20.3093 45.997 20.3509 45.5675 19.791 45.5675V44.9602H21.2077L21.2497 45.4504C21.3623 45.2726 21.5089 45.1337 21.6843 45.034C21.8597 44.9385 22.0607 44.8865 22.2862 44.8865C22.5117 44.8865 22.7122 44.9385 22.8754 45.047C23.0385 45.1511 23.1638 45.3116 23.2475 45.5242C23.3562 45.3246 23.5024 45.1685 23.6778 45.0557C23.8537 44.9429 24.0627 44.8865 24.3005 44.8865C24.6561 44.8865 24.9318 45.0123 25.1365 45.2682C25.3417 45.5198 25.442 45.9059 25.442 46.4264V47.7322C25.442 47.7322 25.4249 48.0792 25.9101 48.0792" fill="#3F1D4F"/>
<path d="M28.2758 44.9028C28.0796 44.9028 27.908 44.9461 27.7576 45.0329C27.6072 45.1196 27.4819 45.2454 27.3774 45.406L27.3311 44.9721H25.9268V45.5751C25.9268 45.5751 26.445 45.5534 26.445 45.9829V49.1192C26.445 49.1192 26.4663 49.5183 25.9769 49.5183V50.1256H27.8786V49.5183C27.3689 49.5183 27.4105 49.1192 27.4105 49.1192V48.3384C27.515 48.4772 27.6403 48.5856 27.7869 48.6551C27.933 48.7288 28.1004 48.7635 28.2886 48.7635C28.7274 48.7635 29.0702 48.5943 29.3166 48.2603C29.5634 47.9263 29.6844 47.4795 29.6844 46.9329V46.8591C29.6844 46.2692 29.5634 45.7964 29.3166 45.4363C29.0702 45.0763 28.7274 44.894 28.2843 44.894M28.7189 46.9286C28.7189 47.2539 28.6645 47.5142 28.5558 47.705C28.447 47.8959 28.2758 47.9913 28.0418 47.9913C27.8914 47.9913 27.7661 47.9653 27.6616 47.9089C27.5571 47.8525 27.4777 47.7745 27.419 47.666V46.0349C27.4777 45.9221 27.5609 45.831 27.6616 45.7703C27.7661 45.7096 27.8872 45.6792 28.0333 45.6792C28.2673 45.6792 28.439 45.7877 28.5515 46.0046C28.6645 46.2215 28.7231 46.5078 28.7231 46.8591V46.9329L28.7189 46.9286Z" fill="#3F1D4F"/>
<path d="M34.0187 44.9021C33.4924 44.9021 33.0744 45.0799 32.7775 45.4356C32.4768 45.7914 32.3259 46.2468 32.3259 46.8021V46.8759C32.3259 47.4354 32.4768 47.8909 32.7775 48.2423C33.0787 48.5936 33.4924 48.7715 34.0272 48.7715C34.5625 48.7715 34.9677 48.5936 35.2646 48.2423C35.5654 47.8909 35.7157 47.4354 35.7157 46.8759V46.8021C35.7157 46.2425 35.5654 45.787 35.2646 45.4356C34.9634 45.0843 34.5497 44.9064 34.0187 44.9064M34.7502 46.8759C34.7502 47.1275 34.7171 47.3443 34.6542 47.5265C34.6334 47.5873 34.6083 47.6436 34.579 47.6957C34.4618 47.9039 34.2783 48.0037 34.0315 48.0037C33.7847 48.0037 33.5884 47.8996 33.4754 47.6957C33.3586 47.4918 33.3042 47.2185 33.3042 46.8759V46.8021C33.3042 46.4724 33.3629 46.2035 33.4754 45.9953C33.5884 45.787 33.7724 45.6829 34.0272 45.6829C34.2821 45.6829 34.4618 45.787 34.5833 45.9953C34.7001 46.2035 34.7587 46.4724 34.7587 46.8021V46.8759H34.7502Z" fill="#3F1D4F"/>
<path d="M15.883 48.0962V48.6992H14.0315V48.0962C14.0315 48.0962 14.4494 48.1266 14.4494 47.7015V46.4825C14.4494 46.1918 14.3993 45.988 14.3031 45.8665C14.207 45.745 14.0566 45.6843 13.8643 45.6843C13.7305 45.6843 13.6093 45.7104 13.509 45.7581C13.4087 45.8101 13.3251 45.8795 13.254 45.9706V47.6971C13.254 47.6971 13.229 48.0919 13.672 48.0919V48.6948H11.8204V48.0919C11.8204 48.0919 12.2885 48.1223 12.2885 47.6928V44.3396C12.2885 44.3396 12.3053 43.9318 11.7703 43.9318V43.3245H13.254V45.4457C13.3669 45.2722 13.5048 45.1421 13.6678 45.0466C13.8309 44.9512 14.0148 44.9035 14.2112 44.9035C14.5874 44.9035 14.8841 45.0336 15.0931 45.2896C15.3063 45.5498 15.4149 45.9446 15.4149 46.4868V47.6928C15.4149 47.6928 15.3731 48.0962 15.8789 48.0962" fill="#3F1D4F"/>
<path d="M19.1974 47.7478V46.2078C19.1974 45.7914 19.0593 45.4703 18.7794 45.2404C18.5032 45.0149 18.1396 44.9021 17.6967 44.9021C17.425 44.9021 17.1784 44.9455 16.9485 45.0279C16.7186 45.1103 16.518 45.2187 16.3383 45.3402V46.1644H17.0656C17.0656 46.1644 17.099 45.6308 17.634 45.6308C17.8261 45.6308 17.977 45.6786 18.0729 45.7783C18.1732 45.8781 18.2233 46.0169 18.2233 46.1948V46.5592H17.7301C17.2077 46.5592 16.8106 46.6546 16.5431 46.8455C16.2714 47.0364 16.1377 47.3053 16.1377 47.6523C16.1377 47.7521 16.146 47.8432 16.1628 47.93C16.1878 48.0514 16.2296 48.1642 16.2882 48.264C16.33 48.3377 16.3843 48.4028 16.447 48.4635C16.6142 48.624 16.8315 48.7195 17.099 48.7499C17.1575 48.7542 17.2202 48.7629 17.2829 48.7629C17.3163 48.7629 17.3456 48.7629 17.379 48.7585C17.5546 48.7455 17.7092 48.7065 17.8512 48.637C18.0143 48.5503 18.1566 48.4418 18.2692 48.303C18.2692 48.303 18.2276 48.5546 18.3864 48.6934H19.5023V48.0905C19.1595 48.0905 19.1931 47.7434 19.1931 47.7434M18.219 47.6784C18.219 47.6784 18.211 47.687 18.211 47.6914C18.1439 47.7868 18.0559 47.8649 17.9434 47.9256C17.8219 47.9907 17.6925 48.0254 17.5462 48.0254C17.3999 48.0254 17.2996 47.9907 17.2202 47.917C17.1408 47.8475 17.1032 47.7478 17.1032 47.622C17.1032 47.5829 17.1074 47.5439 17.1157 47.5092C17.1366 47.4181 17.1826 47.3357 17.262 47.2619C17.3665 47.1621 17.5253 47.1101 17.7301 47.1101H18.2233V47.6784H18.219Z" fill="#3F1D4F"/>
<path d="M28.8605 40.6402L28.9442 41.3646C28.8354 41.3993 28.7267 41.4253 28.6222 41.4427C28.5177 41.4601 28.4009 41.4687 28.2751 41.4687C27.9408 41.4687 27.686 41.3733 27.502 41.1825C27.3223 40.9916 27.2306 40.6923 27.2306 40.2758V38.3758H26.7039V37.6687H26.9214C27.0883 37.6687 27.2306 37.5256 27.2306 37.352V36.7534H28.1962V37.6644H28.8269V38.3715H28.1962V40.2671C28.1962 40.4103 28.225 40.5144 28.2836 40.5751C28.2836 40.5751 28.451 40.7703 28.8562 40.6315" fill="#3F1D4F"/>
<path d="M2.00206 36.9913V36.384H0V36.9913C0 36.9913 0.514121 37.0087 0.514121 37.5292V39.7112C0.514121 40.2752 0.689686 40.7089 1.04493 41.0126C1.40023 41.3163 1.86413 41.4724 2.44095 41.4724C3.01772 41.4724 3.49005 41.3206 3.84529 41.0126C4.20059 40.7089 4.38031 40.2752 4.38031 39.7112V37.5292C4.38031 37.5292 4.37194 36.9913 4.8986 36.9913V36.384H2.89654V36.9913C3.41061 36.9913 3.41061 37.5292 3.41061 37.5292V39.6635C3.41061 39.9975 3.32285 40.2448 3.15149 40.4053C2.98013 40.5702 2.74187 40.6482 2.43675 40.6482C2.13167 40.6482 1.90177 40.5658 1.73041 40.4009C1.55906 40.2361 1.47125 39.9889 1.47125 39.6592V37.5292C1.47125 37.5292 1.44619 36.9913 1.98953 36.9913" fill="#3F1D4F"/>
<path d="M9.09518 40.7958V41.3987H7.24358V40.7958C7.6908 40.7958 7.65737 40.3967 7.65737 40.3967V39.0779C7.65737 38.8263 7.6072 38.6485 7.51107 38.5444C7.41494 38.4403 7.26864 38.3882 7.07222 38.3882C6.94266 38.3882 6.8298 38.4143 6.7253 38.4706C6.62501 38.5227 6.5372 38.6008 6.47034 38.7006V40.401C6.47034 40.401 6.4327 40.8001 6.86322 40.8001V41.4031H5.04089V40.8001C5.51321 40.8001 5.50485 40.401 5.50485 40.401V38.6919C5.50485 38.2407 4.99072 38.2841 4.99072 38.2841V37.6768H6.40764L6.44944 38.2104C6.57063 38.0195 6.71693 37.872 6.88829 37.7679C7.06385 37.6638 7.26032 37.6074 7.47348 37.6074C7.83709 37.6074 8.11711 37.7245 8.32194 37.9631C8.52673 38.1974 8.62707 38.5704 8.62707 39.0736V40.3967C8.62707 40.3967 8.58943 40.7958 9.09097 40.7958" fill="#3F1D4F"/>
<path d="M11.377 38.2801V37.6729H13.007V38.2801C12.8273 38.3149 12.7144 38.5057 12.7646 38.6879L13.1407 40.0804L13.2034 40.3233H13.2244L13.2954 40.0804L13.6674 38.6879C13.7176 38.5057 13.6089 38.3149 13.4292 38.2801H13.4208V37.6729H15.0509V38.2801C14.7374 38.2801 14.6622 38.5578 14.6622 38.5578L13.6799 41.3991H12.7562L11.774 38.5578C11.774 38.5578 11.7113 38.2801 11.3853 38.2801" fill="#3F1D4F"/>
<path d="M16.7772 37.6046C16.284 37.6046 15.8911 37.7782 15.5985 38.1382C15.306 38.4939 15.1597 38.9537 15.1597 39.5047V39.6435C15.1597 40.1727 15.3143 40.6108 15.6236 40.9535C15.9329 41.2962 16.3467 41.4698 16.865 41.4698C17.1534 41.4698 17.4167 41.4264 17.6507 41.3439C17.8848 41.2615 18.0772 41.1574 18.2276 41.0359L17.9642 40.4156C17.7968 40.511 17.6424 40.5848 17.5003 40.6282C17.3581 40.6716 17.1826 40.6932 16.9653 40.6932C16.7229 40.6932 16.5348 40.6151 16.3927 40.4547C16.2506 40.2985 16.1753 40.0946 16.1544 39.8474L16.1628 39.8256H18.307V39.2791C18.307 38.7629 18.1732 38.3551 17.9056 38.0514C17.6382 37.7478 17.262 37.5959 16.7772 37.5959M17.3582 39.162H16.1711L16.1628 39.1446C16.1879 38.9147 16.2506 38.7282 16.3551 38.585C16.4596 38.4418 16.6016 38.3725 16.7814 38.3725C16.9736 38.3725 17.1199 38.4375 17.2161 38.5633C17.3122 38.6891 17.3624 38.8626 17.3624 39.0752V39.1663L17.3582 39.162Z" fill="#3F1D4F"/>
<path d="M20.9069 37.6042C20.9571 37.6042 21.0114 37.6042 21.0701 37.6172C21.124 37.6259 21.2204 37.6476 21.2578 37.6563L21.0951 38.6193L20.7102 38.5499C20.7102 38.5499 20.3967 38.4675 20.2171 38.7277C20.1712 38.7972 20.1461 38.8926 20.1461 38.9793V40.3935C20.1461 40.3935 20.1211 40.7926 20.61 40.7926V41.3956H18.7125V40.7926C19.2014 40.7926 19.1763 40.3935 19.1763 40.3935V38.6843C19.1763 38.2332 18.6624 38.2766 18.6624 38.2766V37.6693H20.0795L20.1211 38.2115C20.2048 38.0207 20.3135 37.8688 20.4469 37.7604C20.5807 37.6519 20.7315 37.5999 20.9069 37.5999" fill="#3F1D4F"/>
<path d="M24.0753 39.5938C23.8621 39.4159 23.532 39.2814 23.089 39.1903C22.8043 39.134 22.6123 39.0645 22.5164 38.9908C22.4199 38.917 22.374 38.8216 22.374 38.7088C22.374 38.5917 22.4241 38.4919 22.5244 38.4095C22.6246 38.3314 22.7584 38.2924 22.9301 38.2924C23.0511 38.2924 23.1641 38.3097 23.2644 38.3488C23.3017 38.3618 23.3353 38.3791 23.3689 38.3922C23.4606 38.4399 23.5235 38.5309 23.5486 38.635L23.5987 38.9517H24.2673L24.2592 38.0277C24.1169 37.9063 23.9207 37.8065 23.6739 37.7284C23.4233 37.6504 23.1599 37.6113 22.8837 37.6113C22.4241 37.6113 22.0733 37.7241 21.8265 37.9497C21.5797 38.1752 21.4543 38.4442 21.4543 38.7565C21.4543 39.0688 21.5631 39.2988 21.7764 39.4723C21.9939 39.6458 22.3111 39.7803 22.7334 39.8714C23.0133 39.9321 23.2015 40.0058 23.306 40.0839C23.4105 40.1663 23.4606 40.2618 23.4606 40.3703C23.4606 40.496 23.4105 40.5958 23.306 40.6696C23.2015 40.7433 23.0554 40.778 22.8549 40.778C22.7461 40.778 22.6417 40.765 22.5414 40.7433C22.5286 40.7433 22.5201 40.739 22.5078 40.7346C22.3906 40.6999 22.2988 40.6045 22.2653 40.4787L22.1943 40.1447H21.4964L21.5045 40.9819C21.6841 41.1381 21.8894 41.2595 22.1192 41.3419C22.349 41.4244 22.6038 41.4677 22.88 41.4677C23.3311 41.4677 23.6989 41.3636 23.9746 41.1511C24.2507 40.9385 24.3926 40.6652 24.3926 40.3312C24.3926 40.0188 24.2843 39.776 24.0711 39.5981" fill="#3F1D4F"/>
<path d="M35.7487 37.6035C35.2219 37.6035 34.8039 37.7814 34.507 38.1371C34.2063 38.4928 34.0559 38.9483 34.0559 39.5036V39.5773C34.0559 40.1369 34.2063 40.5924 34.507 40.9437C34.8082 41.2951 35.2219 41.473 35.7567 41.473C36.292 41.473 36.6972 41.2951 36.9942 40.9437C37.2949 40.5924 37.4452 40.1369 37.4452 39.5773V39.5036C37.4452 38.944 37.2949 38.4885 36.9942 38.1371C36.693 37.7857 36.2792 37.6079 35.7487 37.6079M36.4802 39.5773C36.4802 39.9156 36.4215 40.1846 36.3043 40.3928C36.1875 40.601 36.0035 40.7008 35.7567 40.7008C35.5104 40.7008 35.3137 40.5967 35.2011 40.3928C35.0839 40.189 35.0295 39.9156 35.0295 39.5729V39.4992C35.0295 39.1695 35.0881 38.9006 35.2011 38.6924C35.3137 38.4841 35.4976 38.38 35.7529 38.38C36.0078 38.38 36.1875 38.4841 36.3043 38.6924C36.4215 38.9006 36.4802 39.1695 36.4802 39.4992V39.5729V39.5773Z" fill="#3F1D4F"/>
<path d="M38.5071 36.2927C38.2768 36.5226 38.16 36.8393 38.16 37.26V37.6722H37.6252V38.3792H38.16V40.3964C38.16 40.3964 38.1808 40.7955 37.6919 40.7955V41.3984H39.5979V40.7955C39.0963 40.7955 39.1298 40.3964 39.1298 40.3964V38.3792H39.8443V37.6722H39.1298V37.26C39.1298 37.0909 39.1714 36.9651 39.2509 36.874C39.3932 36.7135 39.6897 36.7048 39.8779 36.7785V35.9934C39.8779 35.9934 39.0253 35.7808 38.5109 36.2884" fill="#3F1D4F"/>
<path d="M9.89713 38.6836V40.3927C9.89713 40.7788 9.42902 40.7918 9.42902 40.7918V41.3948H11.3308V40.7918C11.3308 40.7918 10.8668 40.8222 10.8668 40.3927V37.6729H9.38306V38.2801C9.38306 38.2801 9.90134 38.2238 9.90134 38.6879" fill="#3F1D4F"/>
<path d="M25.2615 38.6836V40.3927C25.2615 40.7788 24.7934 40.7918 24.7934 40.7918V41.3948H26.6952V40.7918C26.6952 40.7918 26.2313 40.8222 26.2313 40.3927V37.6729H24.7476V38.2801C24.7476 38.2801 25.2658 38.2238 25.2658 38.6879" fill="#3F1D4F"/>
<path d="M31.1511 40.0635L31.5776 38.7447C31.6442 38.5365 31.5147 38.3153 31.3057 38.2806H31.3014V37.6733H33.0613V38.2806C32.7393 38.2806 32.6556 38.5278 32.6556 38.5278L31.4059 41.9548C31.3014 42.2238 31.1634 42.4493 30.9879 42.6315C30.8168 42.8137 30.5534 42.9048 30.2021 42.9048C30.1188 42.9048 30.0432 42.8961 29.9723 42.8831C29.9013 42.8701 29.8134 42.8484 29.7174 42.8224L29.8304 42.0893C30.4281 42.2238 30.5827 41.6815 30.5827 41.6815L30.6915 41.3995L29.6257 38.5235C29.6257 38.5235 29.5462 38.2632 29.22 38.2762V37.6689H30.9799V38.2762C30.7709 38.311 30.6413 38.5365 30.708 38.7447L31.1511 40.0591V40.0635Z" fill="#3F1D4F"/>
<path d="M10.0023 44.9069C9.50909 44.9069 9.11621 45.0804 8.82361 45.4404C8.53102 45.8005 8.38477 46.2559 8.38477 46.8069V46.9457C8.38477 47.4749 8.53938 47.9131 8.84867 48.2557C9.158 48.5984 9.57179 48.7719 10.0901 48.7719C10.3785 48.7719 10.6418 48.7286 10.8758 48.6461C11.1099 48.5637 11.3022 48.4596 11.4526 48.3381L11.1893 47.7178C11.0221 47.8133 10.8675 47.887 10.7254 47.9304C10.5832 47.9738 10.4077 47.9954 10.1904 47.9954C9.94793 47.9954 9.75984 47.9174 9.61775 47.7569C9.47566 47.6007 9.40043 47.3968 9.37953 47.1496L9.38785 47.1279H11.532V46.5813C11.532 46.0651 11.3983 45.6573 11.1308 45.3537C10.8633 45.05 10.4871 44.8982 10.0023 44.8982M10.5832 46.4642H9.39622L9.38785 46.4468C9.41296 46.2169 9.47566 46.0303 9.58011 45.8872C9.68461 45.7441 9.82674 45.6746 10.0065 45.6746C10.1987 45.6746 10.345 45.7398 10.4412 45.8655C10.5373 45.9913 10.5875 46.1648 10.5875 46.3774V46.4685L10.5832 46.4642Z" fill="#3F1D4F"/>
<path d="M40 48.098V48.701H38.1484V48.098C38.5957 48.098 38.5621 47.6989 38.5621 47.6989V46.3802C38.5621 46.1286 38.512 45.9508 38.4155 45.8467C38.3195 45.7426 38.1692 45.6905 37.9729 45.6905C37.8429 45.6905 37.7304 45.7165 37.6301 45.7729C37.5299 45.8249 37.4419 45.903 37.3748 46.0028V47.7033C37.3748 47.7033 37.3374 48.1024 37.7677 48.1024V48.7054H35.9454V48.1024C36.4177 48.1024 36.4097 47.7033 36.4097 47.7033V45.9942C36.4097 45.543 35.8953 45.5864 35.8953 45.5864V44.9791H37.3124L37.354 45.5126C37.4712 45.3218 37.6216 45.1743 37.7928 45.0702C37.9687 44.9661 38.1649 44.9097 38.3782 44.9097C38.7418 44.9097 39.0217 45.0268 39.2264 45.2654C39.4312 45.4996 39.5319 45.8727 39.5319 46.3759V47.6989C39.5319 47.6989 39.4941 48.098 39.9958 48.098" fill="#3F1D4F"/>
<path d="M32.0626 47.9461L32.1458 48.6706C32.0371 48.7053 31.9288 48.7313 31.8243 48.7486C31.7198 48.766 31.6025 48.7747 31.4772 48.7747C31.1429 48.7747 30.8881 48.6793 30.7041 48.4884C30.5245 48.2975 30.4323 47.9982 30.4323 47.5818V45.6817H29.9055V44.9747H30.123C30.2904 44.9747 30.4323 44.8315 30.4323 44.658V44.0593H31.3978V44.9703H32.0291V45.6774H31.3978V47.573C31.3978 47.7162 31.4271 47.8203 31.4858 47.8811C31.4858 47.8811 31.6527 48.0763 32.0584 47.9375" fill="#3F1D4F"/>
<path d="M0.519004 51.9441C0.519004 51.4799 0.00488281 51.5189 0.00488281 51.5189V50.9116H2.00278V51.5189C2.00278 51.5189 1.4845 51.4755 1.4845 51.9484V55.1498H2.49596C2.49596 55.1498 2.89305 55.1801 2.89305 54.5208H3.63286V55.9176H0.00488281V55.3146C0.564964 55.3146 0.519004 54.8851 0.519004 54.8851V51.9397V51.9441Z" fill="#00A06E"/>
<path d="M4.00439 54.0263C4.00439 53.4711 4.15485 53.0156 4.45161 52.6642C4.75257 52.3085 5.16215 52.135 5.69296 52.135C6.22377 52.135 6.63756 52.3128 6.93852 52.6642C7.23528 53.0156 7.38574 53.4711 7.38574 54.0307V54.1044C7.38574 54.664 7.23528 55.1195 6.93852 55.4709C6.63756 55.8222 6.22798 56.0001 5.70133 56.0001C5.17468 56.0001 4.75257 55.8222 4.45582 55.4709C4.15485 55.1195 4.00855 54.664 4.00855 54.1044V54.0307L4.00439 54.0263ZM4.96989 54.1001C4.96989 54.4384 5.02843 54.7117 5.14125 54.9156C5.25828 55.1195 5.44221 55.2236 5.69717 55.2236C5.95213 55.2236 6.13185 55.1195 6.24467 54.9156C6.3617 54.7117 6.42024 54.4384 6.42024 54.1001V54.0263C6.42024 53.6966 6.3617 53.4277 6.24467 53.2195C6.12764 53.0112 5.94376 52.9071 5.69296 52.9071C5.44221 52.9071 5.25828 53.0112 5.14125 53.2195C5.02843 53.4277 4.96989 53.6966 4.96989 54.0263V54.1001Z" fill="#00A06E"/>
<path d="M13.7599 51.165V50.5576H15.2436V54.9173C15.2436 54.9173 15.2144 55.3207 15.7075 55.3207V55.9237H14.4035C14.4035 55.9237 14.2865 55.7501 14.3325 55.4682C14.2196 55.6417 14.0858 55.7718 13.9312 55.8586C13.7765 55.9497 13.601 55.993 13.4046 55.993C12.9615 55.993 12.6188 55.8282 12.3764 55.4899C12.1339 55.1558 12.0085 54.7134 12.0085 54.1624V54.0887C12.0085 53.5031 12.1298 53.0302 12.3764 52.6702C12.623 52.3102 12.9657 52.1323 13.4087 52.1323C13.5885 52.1323 13.7473 52.1713 13.8936 52.2538C14.0357 52.3362 14.1611 52.449 14.2698 52.6008V51.5901C14.2698 51.1606 13.7515 51.165 13.7515 51.165M12.974 54.1668C12.974 54.4921 13.0242 54.7481 13.1329 54.9346C13.2374 55.1212 13.4087 55.2166 13.647 55.2166C13.7891 55.2166 13.9103 55.1862 14.0148 55.1255C14.1193 55.0648 14.2029 54.9823 14.2698 54.8696V53.2906C14.2029 53.1691 14.1193 53.078 14.0148 53.0129C13.9145 52.9479 13.7933 52.9131 13.6512 52.9131C13.4129 52.9131 13.2416 53.0216 13.1329 53.2385C13.0242 53.4554 12.9699 53.7417 12.9699 54.0931V54.1668H12.974Z" fill="#00A06E"/>
<path d="M15.9502 54.0263C15.9502 53.4711 16.1007 53.0156 16.3974 52.6642C16.6983 52.3085 17.1079 52.135 17.6388 52.135C18.1694 52.135 18.5836 52.3128 18.8843 52.6642C19.1851 53.0156 19.3316 53.4711 19.3316 54.0307V54.1044C19.3316 54.664 19.1813 55.1195 18.8843 55.4709C18.5836 55.8222 18.1736 56.0001 17.6471 56.0001C17.1205 56.0001 16.6983 55.8222 16.4016 55.4709C16.1007 55.1195 15.9544 54.664 15.9544 54.1044V54.0307L15.9502 54.0263ZM16.9157 54.1001C16.9157 54.4384 16.9742 54.7117 17.087 54.9156C17.2041 55.1195 17.388 55.2236 17.6429 55.2236C17.898 55.2236 18.0777 55.1195 18.1907 54.9156C18.3075 54.7117 18.3661 54.4384 18.3661 54.1001V54.0263C18.3661 53.6966 18.3075 53.4277 18.1907 53.2195C18.0734 53.0112 17.8895 52.9071 17.6388 52.9071C17.388 52.9071 17.2041 53.0112 17.087 53.2195C16.9742 53.4277 16.9157 53.6966 16.9157 54.0263V54.1001Z" fill="#00A06E"/>
<path d="M23.6367 55.3152V55.9181H21.7851V55.3152C22.2324 55.3152 22.1988 54.9161 22.1988 54.9161V53.5973C22.1988 53.3457 22.1487 53.1679 22.0527 53.0638C21.9567 52.9597 21.8102 52.9076 21.6139 52.9076C21.4844 52.9076 21.3714 52.9337 21.2669 52.99C21.1666 53.0421 21.0787 53.1202 21.012 53.22V54.9204C21.012 54.9204 20.9742 55.3195 21.4049 55.3195V55.9225H19.5826V55.3195C20.055 55.3195 20.0465 54.9204 20.0465 54.9204V53.2113C20.0465 52.7601 19.5325 52.8035 19.5325 52.8035V52.1962H20.9491L20.9912 52.7298C21.1122 52.5389 21.2588 52.3914 21.43 52.2873C21.6012 52.1832 21.8021 52.1311 22.0149 52.1311C22.379 52.1311 22.6589 52.2483 22.8636 52.4869C23.0684 52.7254 23.1686 53.0941 23.1686 53.5973V54.9204C23.1686 54.9204 23.1313 55.3195 23.6325 55.3195" fill="#00A06E"/>
<path d="M11.7624 55.3152V55.9181H9.91077V55.3152C10.358 55.3152 10.3246 54.9161 10.3246 54.9161V53.5973C10.3246 53.3457 10.2744 53.1679 10.1783 53.0638C10.0821 52.9597 9.93588 52.9076 9.73941 52.9076C9.60985 52.9076 9.49698 52.9337 9.39248 52.99C9.29219 53.0421 9.20444 53.1202 9.13753 53.22V54.9204C9.13753 54.9204 9.09994 55.3195 9.53041 55.3195V55.9225H7.70808V55.3195C8.1804 55.3195 8.17203 54.9204 8.17203 54.9204V53.2113C8.17203 52.7601 7.65796 52.8035 7.65796 52.8035V52.1962H9.07483L9.11663 52.7298C9.23787 52.5389 9.38416 52.3914 9.55552 52.2873C9.72688 52.1832 9.92751 52.1311 10.1407 52.1311C10.5043 52.1311 10.7843 52.2483 10.9891 52.4869C11.1939 52.7254 11.2943 53.0941 11.2943 53.5973V54.9204C11.2943 54.9204 11.2566 55.3195 11.7582 55.3195" fill="#00A06E"/>
</svg>
